<?xml version="1.0" encoding="utf-8"?>
<svg version="1.1" xmlns:xlink="http://www.w3.org/1999/xlink" width="67px" height="56px" xmlns="http://www.w3.org/2000/svg">
  <g transform="matrix(1 0 0 1 -1646 -220 )">
    <path d="M 1679.5 226.5  C 1694.62 226.5  1706.5 235.96  1706.5 248  C 1706.5 260.04  1694.62 269.5  1679.5 269.5  C 1664.38 269.5  1652.5 260.04  1652.5 248  C 1652.5 235.96  1664.38 226.5  1679.5 226.5  Z " fill-rule="nonzero" fill="#ffffff" stroke="none" fill-opacity="0.0235294117647059" />
    <path d="M 1679.5 223.5  C 1696.3 223.5  1709.5 234.28  1709.5 248  C 1709.5 261.72  1696.3 272.5  1679.5 272.5  C 1662.7 272.5  1649.5 261.72  1649.5 248  C 1649.5 234.28  1662.7 223.5  1679.5 223.5  Z " stroke-width="7" stroke-dasharray="21,7" stroke="#70b603" fill="none" stroke-dashoffset="0.5" />
  </g>
</svg>